<svg width="800" height="800" xmlns="http://www.w3.org/2000/svg">

 <g>
  <title>Layer 1</title>
  <path fill="#de2626" id="svg_1" d="m250,592l150,-150l150,150l42,-42l-150,-150l150,-150l-42,-42l-150,150l-150,-150l-42,42l150,150l-150,150l42,42zm150,208q-82,0 -155,-31.5t-127.5,-86q-54.5,-54.5 -86,-127.5t-31.5,-155q0,-83 31.5,-156t86,-127q54.5,-54 127.5,-85.5t155,-31.5q83,0 156,31.5t127,85.5q54,54 85.5,127t31.5,156q0,82 -31.5,155t-85.5,127.5q-54,54.5 -127,86t-156,31.5zm0,-60q142,0 241,-99.5t99,-240.5q0,-142 -99,-241t-241,-99q-141,0 -240.5,99t-99.5,241q0,141 99.5,240.5t240.5,99.5zm0,-340z"/>
 </g>
</svg>