<svg width="800" height="800" xmlns="http://www.w3.org/2000/svg">

 <g>
  <title>Layer 1</title>
  <path fill="#4ecca3" id="svg_1" d="m341,582l283,-282.99997l-46,-45l-237,236.99997l-120,-120l-45,45l165,166zm59,218q-82,0 -155,-31.5t-127.5,-86q-54.5,-54.5 -86,-127.5t-31.5,-155q0,-82.99997 31.5,-155.99997t86,-127q54.5,-54.00003 127.5,-85.50003t155,-31.5q83,0 156,31.5t127,85.50003q54,54 85.5,127t31.5,155.99997q0,82 -31.5,155t-85.5,127.5q-54,54.5 -127,86t-156,31.5zm0,-60q142,0 241,-99.5t99,-240.5q0,-141.99997 -99,-240.99997t-241,-99.00003q-141,0 -240.5,99.00003t-99.5,240.99997q0,141 99.5,240.5t240.5,99.5zm0,-340z"/>
 </g>
</svg>